<?xml version="1.0" encoding="UTF-8"?>
<svg xmlns="http://www.w3.org/2000/svg" id="Layer_1" data-name="Layer 1" viewBox="0 0 1366 427">
  <defs>
    <style>
      .cls-1 {
        fill-rule: evenodd;
      }

      .cls-1, .cls-2 {
        fill: #154ea1;
      }

      .cls-3 {
        fill: #707070;
      }

      .cls-4 {
        fill: #ff5101;
      }
    </style>
  </defs>
  <g>
    <g>
      <path class="cls-3" d="M522.93,371.98l13.26-82.25h-32.55l1.72-10.57h78.08l-1.72,10.57h-32.28l-13.26,82.25h-13.26Z"></path>
      <path class="cls-3" d="M619.36,349.12l11.98,1.14c-1.37,5.53-4.98,10.79-10.83,15.77-5.85,4.98-13.04,7.47-21.56,7.47-5.32,0-10.28-1.15-14.86-3.45-4.59-2.3-8.18-5.65-10.77-10.04-2.59-4.39-4.06-9.39-4.41-15.01-.45-7.34.92-14.47,4.13-21.37,3.2-6.9,7.59-12.03,13.16-15.39,5.57-3.36,11.71-5.03,18.43-5.03,8.57,0,15.57,2.49,21,7.47,5.43,4.98,8.41,11.78,8.94,20.39.2,3.29.1,6.67-.32,10.13h-52.91c-.1,1.31-.12,2.49-.05,3.55.39,6.29,2.23,11.09,5.52,14.4,3.29,3.31,7.17,4.97,11.64,4.97,4.2,0,8.24-1.29,12.14-3.86,3.9-2.57,6.83-6.29,8.79-11.14ZM582.75,332.47h40.33c-.03-1.18-.06-2.03-.09-2.53-.35-5.74-2.16-10.14-5.42-13.2-3.26-3.06-7.3-4.59-12.12-4.59-5.23,0-9.9,1.69-14,5.07-4.1,3.38-7,8.46-8.7,15.26Z"></path>
      <path class="cls-3" d="M693.15,347.47l12.32,1.2c-2.55,8.4-6.53,14.64-11.94,18.71-5.41,4.07-11.72,6.11-18.94,6.11-7.8,0-14.28-2.36-19.42-7.09-5.14-4.73-7.97-11.33-8.5-19.82-.45-7.34.66-14.56,3.33-21.65,2.67-7.09,6.8-12.48,12.37-16.18,5.57-3.69,12.07-5.54,19.52-5.54s13.95,2.04,18.71,6.11c4.76,4.07,7.35,9.47,7.76,16.18l-12,.76c-.31-4.26-1.83-7.6-4.58-10-2.74-2.41-6.23-3.61-10.47-3.61-4.92,0-9.09,1.46-12.52,4.37-3.43,2.91-5.99,7.33-7.67,13.26-1.69,5.93-2.36,11.64-2.02,17.13.35,5.74,1.97,10.05,4.86,12.92,2.88,2.87,6.31,4.31,10.28,4.31s7.68-1.41,11.14-4.24c3.46-2.83,6.04-7.13,7.76-12.92Z"></path>
      <path class="cls-3" d="M714.35,371.98l14.98-92.82h12.25l-5.72,35.65c4.3-4.14,8.36-7.1,12.17-8.9,3.81-1.79,7.79-2.69,11.95-2.69,5.95,0,10.67,1.47,14.14,4.4,3.47,2.93,5.36,6.81,5.66,11.62.15,2.36-.31,6.71-1.36,13.04l-6.41,39.7h-12.25l6.62-40.71c.94-5.91,1.37-9.62,1.27-11.14-.14-2.19-1.06-3.99-2.77-5.38-1.71-1.39-4.1-2.09-7.17-2.09-4.42,0-8.57,1.09-12.45,3.26-3.88,2.17-6.84,5.15-8.89,8.93-2.05,3.78-3.75,9.87-5.13,18.27l-4.65,28.87h-12.25Z"></path>
      <path class="cls-3" d="M791.42,371.98l10.87-67.24h11.1l-1.92,11.71c4.54-4.6,8.85-7.96,12.91-10.07,4.06-2.11,8.28-3.17,12.66-3.17,5.82,0,10.48,1.48,13.97,4.43,3.5,2.95,5.4,6.9,5.7,11.84.15,2.49-.19,6.42-1.03,11.78l-6.62,40.71h-12.25l6.91-42.61c.69-4.14.98-7.2.85-9.18-.14-2.24-1.07-4.05-2.81-5.45-1.73-1.39-4.15-2.09-7.27-2.09-6.27,0-11.72,2.11-16.36,6.33-4.63,4.22-7.78,11.46-9.45,21.72l-5.04,31.28h-12.25Z"></path>
      <path class="cls-3" d="M869.08,346.46c-.81-13.13,2.65-24,10.37-32.61,6.37-7.09,15.09-10.64,26.14-10.64,8.66,0,15.8,2.53,21.41,7.6,5.61,5.07,8.69,11.9,9.22,20.51.48,7.72-.75,14.91-3.68,21.56-2.93,6.65-7.36,11.75-13.3,15.29-5.94,3.55-12.31,5.32-19.12,5.32-5.59,0-10.75-1.12-15.47-3.36-4.72-2.24-8.41-5.4-11.07-9.5-2.67-4.09-4.16-8.82-4.5-14.18ZM881.26,345.32c.39,6.33,2.31,11.13,5.76,14.4,3.45,3.27,7.68,4.91,12.68,4.91,2.62,0,5.18-.5,7.69-1.49,2.51-.99,4.81-2.5,6.89-4.53,2.08-2.03,3.83-4.34,5.22-6.93,1.4-2.6,2.48-5.39,3.24-8.39,1.14-4.18,1.59-8.19,1.36-12.03-.38-6.08-2.3-10.8-5.78-14.15-3.48-3.36-7.7-5.03-12.66-5.03-3.83,0-7.28.85-10.33,2.56-3.05,1.71-5.75,4.21-8.1,7.5-2.35,3.29-3.98,7.12-4.91,11.49-.93,4.37-1.28,8.26-1.07,11.68Z"></path>
      <path class="cls-3" d="M944.61,371.98l14.98-92.82h12.25l-14.98,92.82h-12.25Z"></path>
      <path class="cls-3" d="M976.94,346.46c-.81-13.13,2.65-24,10.37-32.61,6.37-7.09,15.09-10.64,26.14-10.64,8.66,0,15.8,2.53,21.41,7.6,5.61,5.07,8.69,11.9,9.22,20.51.48,7.72-.75,14.91-3.68,21.56-2.93,6.65-7.36,11.75-13.3,15.29-5.94,3.55-12.31,5.32-19.12,5.32-5.59,0-10.75-1.12-15.47-3.36-4.72-2.24-8.41-5.4-11.07-9.5-2.67-4.09-4.16-8.82-4.5-14.18ZM989.11,345.32c.39,6.33,2.31,11.13,5.76,14.4,3.45,3.27,7.68,4.91,12.68,4.91,2.62,0,5.18-.5,7.69-1.49,2.51-.99,4.81-2.5,6.89-4.53,2.08-2.03,3.83-4.34,5.22-6.93,1.4-2.6,2.48-5.39,3.24-8.39,1.14-4.18,1.59-8.19,1.36-12.03-.38-6.08-2.3-10.8-5.78-14.15-3.48-3.36-7.7-5.03-12.66-5.03-3.83,0-7.28.85-10.33,2.56-3.05,1.71-5.75,4.21-8.1,7.5-2.35,3.29-3.98,7.12-4.91,11.49-.93,4.37-1.28,8.26-1.07,11.68Z"></path>
      <path class="cls-3" d="M1053.11,378.05l12.45,1.08c.07,2.62.53,4.58,1.38,5.89.85,1.31,2.13,2.32,3.84,3.04,2.27.93,5.16,1.39,8.68,1.39,7.4,0,12.61-1.79,15.64-5.38,1.97-2.41,3.61-7.64,4.92-15.7l.88-5.45c-5.99,6.04-12.57,9.05-19.74,9.05s-13.5-2.5-18.7-7.5c-5.2-5-8.09-12.08-8.65-21.24-.47-7.56,1.03-14.5,4.5-20.83,3.47-6.33,7.76-11.11,12.88-14.34,5.12-3.23,10.5-4.84,16.14-4.84,9.43,0,16.95,4.18,22.56,12.54l1.76-11.02h11.23l-10.47,64.9c-1.14,7.13-2.87,12.69-5.2,16.68s-5.71,7.08-10.15,9.28c-4.44,2.19-9.66,3.29-15.66,3.29s-10.79-.7-15.05-2.09c-4.26-1.39-7.5-3.43-9.71-6.11-2.22-2.68-3.43-5.75-3.65-9.21-.07-1.06-.02-2.2.13-3.42ZM1066.2,342.22c.28,4.6.97,8.06,2.06,10.38,1.55,3.25,3.64,5.73,6.24,7.44s5.45,2.56,8.51,2.56c4.01,0,7.92-1.32,11.73-3.96,3.81-2.64,6.77-6.72,8.89-12.25,2.12-5.53,3.02-10.81,2.71-15.83-.34-5.53-2.25-9.93-5.72-13.2-3.47-3.27-7.62-4.91-12.45-4.91-2.98,0-5.82.75-8.52,2.25-2.71,1.5-5.17,3.78-7.39,6.84-2.22,3.06-3.83,6.72-4.8,10.99-.98,4.26-1.4,7.49-1.26,9.69Z"></path>
      <path class="cls-3" d="M1130.01,371.98l10.87-67.24h12.25l-10.87,67.24h-12.25ZM1142.95,292.13l2.11-12.98h12.18l-2.11,12.98h-12.18Z"></path>
      <path class="cls-3" d="M1212.64,349.12l11.98,1.14c-1.37,5.53-4.98,10.79-10.83,15.77-5.85,4.98-13.04,7.47-21.56,7.47-5.32,0-10.28-1.15-14.86-3.45-4.58-2.3-8.18-5.65-10.77-10.04-2.59-4.39-4.06-9.39-4.41-15.01-.45-7.34.92-14.47,4.13-21.37,3.2-6.9,7.59-12.03,13.16-15.39,5.57-3.36,11.71-5.03,18.43-5.03,8.57,0,15.57,2.49,21,7.47,5.43,4.98,8.41,11.78,8.94,20.39.2,3.29.1,6.67-.32,10.13h-52.91c-.1,1.31-.12,2.49-.05,3.55.39,6.29,2.23,11.09,5.52,14.4,3.29,3.31,7.17,4.97,11.64,4.97,4.2,0,8.24-1.29,12.14-3.86,3.9-2.57,6.83-6.29,8.78-11.14ZM1176.02,332.47h40.33c-.03-1.18-.06-2.03-.09-2.53-.35-5.74-2.16-10.14-5.42-13.2-3.26-3.06-7.3-4.59-12.12-4.59-5.23,0-9.9,1.69-14,5.07-4.1,3.38-7,8.46-8.7,15.26Z"></path>
      <path class="cls-3" d="M1238.07,348.99l12.2-.7c.2,3.29.92,6.1,2.14,8.42,1.23,2.32,3.34,4.22,6.34,5.7,3,1.48,6.44,2.22,10.32,2.22,5.41,0,9.41-1.01,11.99-3.04,2.58-2.03,3.79-4.41,3.62-7.15-.12-1.98-1.05-3.86-2.78-5.63-1.78-1.77-5.99-3.96-12.62-6.55-6.63-2.6-10.89-4.42-12.75-5.48-3.13-1.73-5.53-3.77-7.21-6.11-1.68-2.34-2.61-5.03-2.8-8.07-.33-5.32,1.65-9.88,5.92-13.68,4.28-3.8,10.47-5.7,18.59-5.7,9.02,0,16.01,1.95,20.97,5.86,4.95,3.9,7.72,9.04,8.29,15.42l-11.93.76c-.43-4.05-2.16-7.26-5.2-9.62-3.03-2.36-7.19-3.55-12.47-3.55-4.24,0-7.48.91-9.71,2.72-2.23,1.82-3.29,3.78-3.15,5.89s1.26,3.97,3.39,5.57c1.42,1.1,5.02,2.79,10.8,5.07,9.62,3.8,15.71,6.8,18.28,8.99,4.1,3.5,6.3,7.77,6.61,12.79.21,3.34-.69,6.61-2.68,9.81-1.99,3.21-5.17,5.77-9.54,7.69-4.37,1.92-9.6,2.88-15.69,2.88-8.3,0-15.48-1.92-21.53-5.76-6.06-3.84-9.19-10.09-9.41-18.74Z"></path>
    </g>
    <g>
      <path class="cls-2" d="M531.51,54.73h153.51l-4.66,39.58h-96.1l-3.47,29.46h89.15l-4.45,37.81h-89.15l-4.3,36.54h98.88l-4.94,41.98h-156.29l21.83-185.37Z"></path>
      <path class="cls-2" d="M688.93,105.82h53.55l16.03,85.1,37.06-85.1h51.93l-72.89,134.29h-45.65l-40.03-134.29Z"></path>
      <path class="cls-2" d="M836.87,173.65c2.41-20.49,11.31-37.37,26.7-50.64,15.39-13.28,34.84-19.92,58.36-19.92,26.89,0,46.29,7.8,58.19,23.39,9.56,12.56,13.27,28.03,11.1,46.41-2.43,20.66-11.27,37.58-26.52,50.77-15.25,13.19-34.98,19.79-59.17,19.79-21.58,0-38.39-5.48-50.41-16.44-14.76-13.57-20.84-31.36-18.25-53.36ZM888.48,173.53c-1.41,11.97-.03,20.82,4.14,26.55,4.17,5.73,9.92,8.6,17.26,8.6s13.84-2.82,19.27-8.47c5.43-5.64,8.88-14.71,10.35-27.19,1.37-11.63-.01-20.3-4.15-25.98-4.14-5.69-9.74-8.53-16.82-8.53-7.51,0-14.04,2.89-19.61,8.66-5.57,5.77-9.05,14.56-10.44,26.36Z"></path>
      <path class="cls-2" d="M1024.9,54.73h52.6l-11.27,95.69,43.7-44.6h63.35l-53.72,47.04,40.68,87.25h-57.99l-20.86-53.83-21.62,18.93-4.11,34.9h-52.6l21.83-185.37Z"></path>
      <path class="cls-2" d="M1317.41,186.04h-103.18c-.05,8.26,1.46,14.41,4.52,18.46,4.29,5.82,10.44,8.73,18.45,8.73,5.06,0,10.01-1.26,14.86-3.79,2.97-1.6,6.29-4.42,9.97-8.47l50.16,4.68c-9.35,13.49-19.84,23.16-31.49,29.02-11.65,5.86-27.71,8.79-48.2,8.79-17.79,0-31.48-2.51-41.09-7.52-9.61-5.02-17.12-12.98-22.54-23.9-5.42-10.91-7.25-23.75-5.52-38.5,2.47-20.99,11.19-37.98,26.17-50.96,14.98-12.98,34.31-19.47,58-19.47,19.22,0,34.05,2.91,44.49,8.72,10.44,5.82,17.92,14.25,22.44,25.29,4.52,11.05,5.73,25.42,3.65,43.12l-.69,5.81ZM1267.96,161.39c.16-9.95-1.68-17.07-5.51-21.37-3.84-4.3-9.29-6.45-16.37-6.45-8.18,0-15.09,3.25-20.75,9.74-3.6,4.05-6.29,10.07-8.07,18.08h50.71Z"></path>
    </g>
  </g>
  <g>
    <path class="cls-4" d="M239.18,182.48c-80.25,26.44-151.79,26.9-158.94,1.11-2.8-9.36,3.42-20.84,16.17-33.07-31.73,17.42-50.39,36.03-47.28,50.45,5.6,25,74.65,28,153.97,6.41,64.39-17.28,116.02-45.34,130.02-68.7-23.64,15.67-56.3,31.66-93.94,43.81Z"></path>
    <path class="cls-4" d="M215.61,261.56c-71.1,23.05-134.49,23.45-140.83.96-2.48-8.16,3.03-18.17,14.33-28.84-28.11,15.19-44.65,31.41-41.89,43.99,4.96,21.8,66.14,24.42,136.42,5.59,57.05-15.07,102.8-39.53,115.2-59.9-20.95,13.66-49.88,27.6-83.23,38.2Z"></path>
    <path class="cls-4" d="M209.38,330.55c-48.79,15.98-92.29,16.25-96.64.67-1.7-5.66,2.08-12.59,9.83-19.98-19.29,10.53-30.64,21.77-28.75,30.48,3.4,15.11,45.39,16.92,93.62,3.87,39.15-10.44,70.54-27.39,79.05-41.51-14.37,9.47-34.23,19.13-57.11,26.47Z"></path>
    <path class="cls-1" d="M265.56,28.11c-76.38,0-141.24,48.18-165.18,115.09,26.07-52.05,80.32-87.73,143.36-87.73,77.29,0,141.54,53.83,156.39,125.5,2.12,10.11,3.33,20.82,3.33,31.82,0,86.54-71.53,156.73-159.72,156.73-2.73,0-5.46,0-8.18-.3,9.7,1.78,19.7,2.68,30.01,2.68,96.68,0,174.88-77.03,174.88-171.9S362.24,28.11,265.56,28.11Z"></path>
  </g>
</svg>
